<svg id="Layer_1" data-name="Layer 1" xmlns="http://www.w3.org/2000/svg" viewBox="0 0 920 153.59"><defs><style>.cls-1{fill:#0d0d0d;}</style></defs><path class="cls-1" d="M111.06,579c-7.09-2.5-14-5.34-20.88-8.47q-4.17-1.9-8.29-4a44.72,44.72,0,0,0,10,19.53q11.94,13.26,32.52,13.26t42.88-11.38A156.36,156.36,0,0,1,111.06,579Z" transform="translate(-80 -463.21)"/><path class="cls-1" d="M106.79,563.44A53.61,53.61,0,0,1,105,548.88q32,0,56.63-15.76t24.62-36.21q0-12.45-8.85-19.88t-23.6-7.42q-30.53,0-52.17,23.54T80,549.83c0,.78,0,1.54,0,2.3,4.89,2.29,8.84,4,9.85,4.52A145.75,145.75,0,0,0,106.79,563.44Zm15.49-65.88q13.16-16.63,28.69-16.64,13,0,13,14.59,0,16.31-17.09,28.72t-41,13.68Q109.14,514.21,122.28,497.56Z" transform="translate(-80 -463.21)"/><path class="cls-1" d="M395.76,492.92q0-21.26-13.75-21.25-8.82,0-19.13,8,8.67,3.48,10.39,18,11.19-1.71,22.45-2.88C395.74,494.19,395.76,493.55,395.76,492.92Z" transform="translate(-80 -463.21)"/><path class="cls-1" d="M363.5,559.21q-10.2,23.19-23.65,23.2-14.6,0-14.6-31.89,0-11.31.8-20.34l.52-5.83c-6.77,1.89-13.47,4-20.07,6.26l-.79,26.2q0,43.88,25.94,43.88,23,0,42.17-35.66,15.63-29.14,20.11-53.36c-6.82.76-13.64,1.64-20.45,2.69Q372.21,539.4,363.5,559.21Z" transform="translate(-80 -463.21)"/><path class="cls-1" d="M329.14,506.8c2-11.37,3-17.76,3-19.13q0-7.55-9.94-7.55-5.26,0-15.2,3.66c.07,1.83.11,3.09.11,3.77q0,11-7.26,28.66c5.29-2.15,10.69-4.1,16.26-5.76Q322.58,508.52,329.14,506.8Z" transform="translate(-80 -463.21)"/><path class="cls-1" d="M267,572.46q-.78-12.57-1.87-23.77l-3,1.63c-6.19,3.45-12.23,7.16-18.28,10.85.26,4.77.41,9.57.41,14.38A86.37,86.37,0,0,1,241.37,599q23,0,37.48-19.55,14.61-19.81,27.43-48.74-8.23,2.87-16.29,6.2A251.09,251.09,0,0,1,267,572.46Z" transform="translate(-80 -463.21)"/><path class="cls-1" d="M263.47,534c-7,3.83-14,7.71-21,11.44q-1.33-11.58-3.73-23c-.74-3.52-1.51-7.06-2.4-10.57-.46-1.82-.94-3.59-1.4-5.31Q227.46,479.49,217,467.9q10.59-4.69,17.37-4.69,12.31,0,20.85,28.74Q260.28,509,263.47,534Z" transform="translate(-80 -463.21)"/><path class="cls-1" d="M458.27,492.15q9.08-8.47,20.07-8.48,13.83,0,33.83,11.85,14.13,1.56,28.14,3.9l.48-2.38q3.42-17.27,9.94-27.2c-2.05-.08-3.54-.12-4.46-.12q-21.25,0-24.22,10.63-20.14-10.74-37.41-10.74-26,0-46.24,22.58Q448.35,492,458.27,492.15Z" transform="translate(-80 -463.21)"/><path class="cls-1" d="M581,549.09q-21.44,20.63-33.77,20.63-11.66,0-11.66-25a209.33,209.33,0,0,1,2-30.35q-13.62-2-27.32-3.42Q466.74,577.49,451,577.49q-15.11,0-15.1-23.08,0-26.31,10.51-46.07-10.09.21-20.32.74-13.26,22.74-13.28,50.7,0,17.94,7.27,28.74t19.39,10.8q15.9,0,37.36-21.2t36.09-51.48q-.67,14.5-.68,23.08,0,41.14,24.68,41.14,19.54,0,46.75-25.2a232.67,232.67,0,0,0,30.85-35.3q-6.66-1.77-13.36-3.4A245.09,245.09,0,0,1,581,549.09Z" transform="translate(-80 -463.21)"/><path class="cls-1" d="M676,548.94a300.54,300.54,0,0,1-19,26.95q-2.24-18.55-5.6-34.92Q639.77,537.35,628,534q7.44,25.92,7.46,48.15a73.13,73.13,0,0,1-2.52,17.37q14.85-1.14,21.26-4.57t15.77-15.32q10-12.69,19.18-26.2l-3.35-1.17Q680.9,550.6,676,548.94Z" transform="translate(-80 -463.21)"/><path class="cls-1" d="M632,502.75q-4.41,7.85-9.07,15.15,12.41,3.26,24.73,6.77a253.21,253.21,0,0,0-9.09-28.49q-12.85-33-25.43-33-7.89,0-17.83,5,12.36,13.32,22.3,36.55,2.74-4,5.47-8.21Z" transform="translate(-80 -463.21)"/><path class="cls-1" d="M705.53,527.78q16.4-27.43,16.4-35.2,0-8.68-17.14-15.54-1.72,19.54-14.75,46.51-2.94,6.08-6.24,12.08,7,2.26,14,4.62Q701.73,534.09,705.53,527.78Z" transform="translate(-80 -463.21)"/><path class="cls-1" d="M622.92,517.9q4.67-7.31,9.07-15.15l-8.92-6.17q-2.73,4.2-5.47,8.21,2.65,6.18,5.12,13.06Z" transform="translate(-80 -463.21)"/><path class="cls-1" d="M633.89,518.08a1.74,1.74,0,0,0,.11-.18l-.19,0C633.83,517.92,633.86,518,633.89,518.08Z" transform="translate(-80 -463.21)"/><path class="cls-1" d="M793.17,580.94c-13.21-3.42-27-7.73-40.74-12.32a44,44,0,0,0,9.49,17.44q11.94,13.26,32.52,13.26,20.41,0,42.34-11.1c-12.38-.4-26.69-3-41.83-6.83C794.34,581.25,793.75,581.11,793.17,580.94Z" transform="translate(-80 -463.21)"/><path class="cls-1" d="M775,548.88q32,0,56.63-15.76t24.62-36.21q0-12.45-8.85-19.88t-23.6-7.42q-30.52,0-52.17,23.54T750,549.83c0,.67,0,1.32,0,2,8.18,3,17,6.2,26.19,9.25A57.67,57.67,0,0,1,775,548.88Zm17.26-51.32q13.14-16.63,28.68-16.64,13,0,13,14.59,0,16.31-17.09,28.72t-41,13.68Q779.12,514.21,792.27,497.56Z" transform="translate(-80 -463.21)"/><path class="cls-1" d="M939.63,573.37q0,17.48-14.62,30.45a50.06,50.06,0,0,1-34.29,13q-11.54,0-19.66-5.93T863,596.57a17.81,17.81,0,0,1,3.67-10.29A142.82,142.82,0,0,0,901.8,575.5q-19.06,12.09-19.08,19.58,0,9.36,13.6,9.37c6.7,0,12.16-2.27,16.34-6.8S919,587.27,919,580.11a34.59,34.59,0,0,0-2.22-11.93c-1.48-3.64-3.4-8.11-5.17-11.94l-9.16-14.75a159,159,0,0,1-12.08-22.89A61.17,61.17,0,0,1,886,503.52a32.46,32.46,0,0,1-.26-4c0-11.62,7.76-26.95,19-31.65,9-3.72,21.79.43,21.78,11.66q0,12.8-19.77,24.56l13,24L930,546.64a1.22,1.22,0,0,1,.19-.12,2,2,0,0,0,0,.34l.17-.1c1.35,3.34,4.32,5,5.56,9.47l-.25.16A44.62,44.62,0,0,1,939.63,573.37Z" transform="translate(-80 -463.21)"/><path class="cls-1" d="M930.14,546.53a6,6,0,0,0,0,.73l5.71,9q7.71-4.32,14.85-9.06V533.41Q942,539.41,930.14,546.53Z" transform="translate(-80 -463.21)"/><path class="cls-1" d="M990.86,495.55q-8.48,9.74-15.48,16.93v15.6a191.07,191.07,0,0,0,15.38-15.55c3.24-3.69,6.32-7.47,9.24-11.39Z" transform="translate(-80 -463.21)"/><path class="cls-1" d="M874.09,565a40.45,40.45,0,0,0-7.48,7.77,142.06,142.06,0,0,0,33.92-10.25c-2-3.44-4.44-6.55-5.69-10.8Q881.33,559,874.09,565Z" transform="translate(-80 -463.21)"/></svg>